<svg xmlns="http://www.w3.org/2000/svg" xmlns:xlink="http://www.w3.org/1999/xlink" viewBox="0 0 13.32 13.03"><defs><style>.cls-1{fill:url(#radial-gradient);}</style><radialGradient id="radial-gradient" cx="6.66" cy="6.52" r="6.59" gradientUnits="userSpaceOnUse"><stop offset="1" stop-color="#003447"/><stop offset="1" stop-color="#d2eadc" stop-opacity="0"/></radialGradient></defs><title>Asset 3</title><g id="Layer_2" data-name="Layer 2"><g id="Layer_1-2" data-name="Layer 1"><path class="cls-1" d="M12.62,0H.7A.69.69,0,0,0,.2.21L.71.42C3.2,1.43,5.2,2.29,5.2,2.33S3.15,1.58.65.57L.1.35A.68.68,0,0,0,0,.7v.7l1.23.5c2.49,1,4.49,1.86,4.49,1.91s-2-.75-4.55-1.76L0,1.57v.56l1.82.73c2.48,1,4.49,1.86,4.49,1.91S4.26,4,1.76,3L0,2.29v.87l.54.22c1.85.75,3.33,1.38,3.31,1.42S2.33,4.26.49,3.51L0,3.32v.33c1.52.63,2.66,1.12,2.64,1.15S1.5,4.41,0,3.81v.64l.71.29C2.55,5.48,4,6.12,4,6.16S2.5,5.62.65,4.87L0,4.6V6c1.69.69,3,1.26,3,1.3S1.67,6.79,0,6.12v6.21a.7.7,0,0,0,.7.7H5.2V11.79a4.79,4.79,0,0,0,.68.58h0l0,0h0a1.85,1.85,0,0,1,0-.23s0-.08,0-.12l0-.26c0-.06,0-.13,0-.19a1.48,1.48,0,0,1,0-.21,1.93,1.93,0,0,1,0-.24c0-.25,0-.49,0-.74s.06-.51.11-.76c0,0,0,0,0,0A14.21,14.21,0,0,1,7.31,5.91c.28-.53.56-1,.83-1.46A13.4,13.4,0,0,0,6.27,9.61v0c0,.14,0,.27,0,.39,0,.27,0,.52,0,.75v.11c0,.12,0,.23,0,.34a1.49,1.49,0,0,0,0,.21,1.64,1.64,0,0,0,0,.22,2.51,2.51,0,0,0,0,.27c0,.08,0,.16,0,.24l0,.11c0,.11,0,.21.07.29a.14.14,0,0,1,0,.06.64.64,0,0,0,0,.07h0a1.76,1.76,0,0,0,1.6,0L8,13h4.6a.7.7,0,0,0,.7-.7V.7A.7.7,0,0,0,12.62,0ZM5.92,2.31l-.09.09,0-.12-.12-.06.11-.06,0-.13.09.09L6,2.1,6,2.21l.07.11ZM6.3,2,6.18,2l.11-.06,0-.13.09.09.13,0L6.47,2l.07.11-.13,0-.09.1Zm1,3.86A14.28,14.28,0,0,0,6,9.29c0,.11,0,.22-.07.33a16.43,16.43,0,0,0-1.81.18c.32-2.24,4.15-6.07,5.12-7A21.69,21.69,0,0,0,7.28,5.89Zm1.1,1.66a13.91,13.91,0,0,0,.41,2.58,3.84,3.84,0,0,0-2.34-.52H6.32A14.51,14.51,0,0,1,9.24,2.85,9,9,0,0,0,8.38,7.55Z"/></g></g></svg>