<svg id="icon" xmlns="http://www.w3.org/2000/svg" width="59.49" height="37.42" viewBox="0 0 59.49 37.42">
  <g id="logo">
    <path id="Path_613" data-name="Path 613" d="M214.184,240.375s0,0,0,.007h-7.52c-.062,0-.127-.007-.189-.007H189.313a8.765,8.765,0,0,1-7.1-4.85,8.288,8.288,0,0,1-.845-3.408,8.569,8.569,0,0,1,8.554-8.816H210.2a4.849,4.849,0,0,1,4.85,4.85H190.023a3.776,3.776,0,0,0-3.809,3.518,3.707,3.707,0,0,0,3.183,3.856,3.425,3.425,0,0,0,.517.036h17.322A8.57,8.57,0,0,1,214.184,240.375Z" transform="translate(-155.556 -223.3)" fill="#3bb77e"/>
    <g id="Group_213" data-name="Group 213">
      <path id="Path_614" data-name="Path 614" d="M133.277,228.15H115.35a4.849,4.849,0,0,1-4.85-4.85h17.927a4.849,4.849,0,0,1,4.85,4.85Z" transform="translate(-110.5 -223.3)" fill="#606161"/>
    </g>
    <g id="Group_214" data-name="Group 214" transform="translate(6.813 12.268)">
      <path id="Path_615" data-name="Path 615" d="M145.622,261.84H134.06a4.849,4.849,0,0,1-4.85-4.85h11.562a4.853,4.853,0,0,1,4.85,4.85Z" transform="translate(-129.21 -256.99)" fill="#606161"/>
    </g>
    <path id="Path_616" data-name="Path 616" d="M195.18,277.593a7.493,7.493,0,0,1-.084.954,8.71,8.71,0,0,1-8.652,7.345H155a4.849,4.849,0,0,1-4.85-4.85h36.367a3.825,3.825,0,0,0,3.605-2.494,3.429,3.429,0,0,0,.2-1.023,3.675,3.675,0,0,0-.433-1.934H195A8.258,8.258,0,0,1,195.18,277.593Z" transform="translate(-135.712 -256.549)" fill="#3bb77e"/>
    <ellipse id="Ellipse_3" data-name="Ellipse 3" cx="3.015" cy="3.015" rx="3.015" ry="3.015" transform="translate(25.949 31.389)" fill="#606161"/>
    <ellipse id="Ellipse_4" data-name="Ellipse 4" cx="3.015" cy="3.015" rx="3.015" ry="3.015" transform="translate(42.809 31.389)" fill="#606161"/>
  </g>
</svg>
