<svg id="Layer_1" data-name="Layer 1" xmlns="http://www.w3.org/2000/svg" viewBox="0 0 955.15 210.58"><defs><style>.cls-1{fill:#073447;}</style></defs><title>Untitled-2</title><path class="cls-1" d="M293.37,434.71H102.46a11.32,11.32,0,0,0-8.19,3.47c2.73,1.1,5.52,2.22,8.33,3.38,40.16,16.31,72.55,30.08,72.55,30.85-.3.65-33.19-12.1-73.53-28.51-3-1.21-6-2.43-8.92-3.61a11.25,11.25,0,0,0-1.6,5.78V457.4l20,8c40.16,16.34,72.51,30.1,72.51,30.87-.26.62-33.19-12.1-73.49-28.47-6.56-2.67-12.93-5.28-19-7.77v9c9,3.59,19,7.6,29.39,11.84C160.65,497.23,193,511,193,511.79c-.27.66-33.16-12.1-73.5-28.47-10.09-4.12-19.72-8.07-28.44-11.66v14.06q4.26,1.74,8.75,3.56c29.65,12,53.5,22.31,53.5,23-.24.62-24.62-8.69-54.39-20.79-2.67-1.1-5.31-2.14-7.86-3.21v5.37c24.44,10.06,42.73,18,42.73,18.63-.2.56-18.5-6.38-42.73-16.11V506.6c3.7,1.49,7.56,3,11.47,4.63,29.66,12,53.51,22.3,53.51,23-.27.62-24.62-8.69-54.4-20.8L91.1,509.12V531c27.25,11.16,48.43,20.32,48.43,21-.24.6-21.41-7.47-48.43-18.39V634a11.29,11.29,0,0,0,11.27,11.3h71.77l-.21-20a81.87,81.87,0,0,0,11,9.25s.09.06.09.06.17.15.23.18a5.09,5.09,0,0,1,.42.3l.18.09c-.27-1.22-.48-2.44-.66-3.65-.11-.68-.2-1.34-.29-2-.21-1.36-.36-2.79-.51-4.21-.06-1-.14-2-.2-2.94-.09-1.15-.12-2.31-.15-3.47S184,616.31,184,615c0-4,.24-7.89.59-11.86s1-8.19,1.78-12.25a5.53,5.53,0,0,1,.15-.75c4.15-22.06,13-43.18,21.56-59.94,4.36-8.57,8.93-16.49,13.29-23.55-19.87,33.9-27.49,62.5-30,83.35a4.91,4.91,0,0,0-.08.74c-.27,2.16-.45,4.27-.6,6.26q-.44,6.49-.35,12.19a13.83,13.83,0,0,0,.06,1.6c0,2,.11,3.82.23,5.6.09,1.16.18,2.26.3,3.35s.24,2.41.38,3.56c.18,1.52.39,3,.66,4.33s.44,2.67.71,3.89c.12.62.27,1.19.36,1.78.41,1.84.83,3.44,1.24,4.8.06.33.18.63.24.92s.24.77.35,1.13c.12.06.18.06.33.12l.47.18c15.81,6.25,25.63-.48,25.63-.48l-1.84,5.34h73.91A11.29,11.29,0,0,0,304.64,634V446A11.26,11.26,0,0,0,293.37,434.71ZM187,473l-1.39,1.54-.39-2.05-1.86-.83,1.81-1,.2-2.05,1.52,1.42,2-.41-.89,1.87,1,1.78Zm4.22-5.22,1.78-1,.23-2.08,1.49,1.43,2-.42-.89,1.84,1,1.81-2.08-.27-1.36,1.55-.39-2.05Zm16.28,63c-9.85,19.16-16.82,37.54-20.67,54.69-.36,1.75-.75,3.5-1.07,5.22a282.84,282.84,0,0,0-29.16,2.87c5.22-35.85,66.65-97.43,82.31-112.64A358.72,358.72,0,0,0,207.51,530.84Zm17.74,26.78a214.93,214.93,0,0,0,6.58,41.4c-7.24-6.61-22.6-8.45-37.55-8.45-.74,0-1.45,0-2.19,0,3.08-25.78,14.2-63.47,47-108.52C225.48,507.2,224,536.68,225.25,557.62Z" transform="translate(-91.1 -434.71)"/><polygon class="cls-1" points="297.11 109.66 285.41 109.66 279.58 92.69 276.02 82.36 263.95 47.22 251.89 82.36 248.33 92.69 242.5 109.66 230.8 109.66 237.05 92.69 240.85 82.36 259.32 32.26 268.59 32.26 297.11 109.66"/><polygon class="cls-1" points="268.98 92.69 248.33 92.69 251.89 82.36 265.42 82.36 268.98 92.69"/><polygon class="cls-1" points="447.75 109.64 459.45 109.64 465.28 92.67 468.84 82.34 480.9 47.2 492.97 82.34 496.53 92.67 502.36 109.64 514.06 109.64 507.81 92.67 504.01 82.34 485.54 32.24 476.27 32.24 447.75 109.64"/><polygon class="cls-1" points="475.88 92.67 496.53 92.67 492.97 82.34 479.44 82.34 475.88 92.67"/><path class="cls-1" d="M399.92,467h10.86v77.39H399.92Zm5.43,67.07h44.28v10.32H405.35Z" transform="translate(-91.1 -434.71)"/><path class="cls-1" d="M518,467h10.16v77.39H517.6v-58l.53,3.41-19.05,43.8h-7.56l-19-42.74.53-4.47v58H462.41V467h10.16l22.73,51.1Z" transform="translate(-91.1 -434.71)"/><path class="cls-1" d="M616.87,467h10.86v77.39H616.87Zm8.52,43.43L659.56,467h13.36L623.79,526.7Zm12.88-7.34,8.57-7.93,29.32,49.23h-13.3Z" transform="translate(-91.1 -434.71)"/><path class="cls-1" d="M769,502.7v13.52a33.06,33.06,0,0,1-3.35,15.19,24.32,24.32,0,0,1-9.5,10.17,27.77,27.77,0,0,1-14.24,3.59,29.58,29.58,0,0,1-14.4-3.38,23.75,23.75,0,0,1-9.61-9.55,29.18,29.18,0,0,1-3.4-14.32V495.08a32.87,32.87,0,0,1,3.35-15.16,24.24,24.24,0,0,1,9.5-10.14,27.67,27.67,0,0,1,14.24-3.6A26.73,26.73,0,0,1,753.85,469a26.07,26.07,0,0,1,9.39,8.06,30,30,0,0,1,5.11,12.09H756.59a16.63,16.63,0,0,0-3.25-6.68,15.33,15.33,0,0,0-5.37-4.26,14.71,14.71,0,0,0-6.39-1.47,15.45,15.45,0,0,0-8.41,2.29,15.11,15.11,0,0,0-5.59,6.42,22.09,22.09,0,0,0-2,9.6v22.84a18.15,18.15,0,0,0,2,8.75,14.21,14.21,0,0,0,5.72,5.83,17.07,17.07,0,0,0,8.54,2.08,16.1,16.1,0,0,0,8.41-2.16,14.21,14.21,0,0,0,5.59-6.25,22.33,22.33,0,0,0,2-9.74v-3.35h-15.7V502.7Z" transform="translate(-91.1 -434.71)"/><path class="cls-1" d="M785.49,466.93h10.86v77.44H785.49Zm4.74,34.38h26.4a10.08,10.08,0,0,0,5.48-1.49,9.75,9.75,0,0,0,3.7-4.23,15.83,15.83,0,0,0,0-12.61,9.9,9.9,0,0,0-3.67-4.24,10.17,10.17,0,0,0-5.51-1.49h-26.4V466.93h26A24.17,24.17,0,0,1,828,469.7a19.34,19.34,0,0,1,7.88,7.85,24,24,0,0,1,2.8,11.73A23.69,23.69,0,0,1,835.84,501a19.51,19.51,0,0,1-7.9,7.85,24.11,24.11,0,0,1-11.74,2.77h-26Zm21.08,7.93,10.8-2.45,19.8,37.58H829Z" transform="translate(-91.1 -434.71)"/><path class="cls-1" d="M903.85,479.72a24.18,24.18,0,0,0-9.56-10,26.19,26.19,0,0,0-8.84-3.1v11.06a14.33,14.33,0,0,1,3,1.35,14.6,14.6,0,0,1,5.64,6.12,20.19,20.19,0,0,1,2,9.19V517a20.22,20.22,0,0,1-2,9.19,14.6,14.6,0,0,1-5.64,6.12,14.86,14.86,0,0,1-3,1.35v11.06a26.19,26.19,0,0,0,8.84-3.1,24.17,24.17,0,0,0,9.56-10,31.86,31.86,0,0,0,3.37-15V494.71A32,32,0,0,0,903.85,479.72Zm-47.65,0a32,32,0,0,0-3.38,15v21.94a31.86,31.86,0,0,0,3.38,15,24.21,24.21,0,0,0,9.55,10,26.25,26.25,0,0,0,8.85,3.1V533.67a15.2,15.2,0,0,1-3-1.35A14.51,14.51,0,0,1,866,526.2a20.22,20.22,0,0,1-2-9.19V494.35a20.19,20.19,0,0,1,2-9.19,14.45,14.45,0,0,1,8.65-7.47V466.63a26.25,26.25,0,0,0-8.85,3.1A24.22,24.22,0,0,0,856.2,479.72Z" transform="translate(-91.1 -434.71)"/><path class="cls-1" d="M934.07,541.79a22.14,22.14,0,0,1-9.28-9.85,34.82,34.82,0,0,1-3.2-15.56V467h10.86v49.77q0,8.46,4.26,13.09t12,4.63q7.82,0,12.11-4.63t4.28-13.09V467H976v49.4a34.83,34.83,0,0,1-3.19,15.56,22.12,22.12,0,0,1-9.32,9.85,33.68,33.68,0,0,1-29.41,0Z" transform="translate(-91.1 -434.71)"/><path class="cls-1" d="M993,467h10.86v77.39H993Zm5.59,37h24.75a11.51,11.51,0,0,0,6.18-1.65,10.92,10.92,0,0,0,4.12-4.69,15.77,15.77,0,0,0,1.47-7,16,16,0,0,0-1.47-7,11.15,11.15,0,0,0-4.12-4.71,11.44,11.44,0,0,0-6.18-1.67H998.61V467H1023a24.51,24.51,0,0,1,12.19,3,20.48,20.48,0,0,1,8.17,8.33,28.13,28.13,0,0,1,0,24.88,20.54,20.54,0,0,1-8.17,8.28,24.7,24.7,0,0,1-12.19,2.92H998.61Z" transform="translate(-91.1 -434.71)"/><rect class="cls-1" x="229.85" y="152.19" width="78.38" height="4.47"/><rect class="cls-1" x="876.77" y="152.19" width="78.38" height="4.47"/><path class="cls-1" d="M431.12,581v25.27L430,604.93q-.58-.66-1.14-1.35,0-1.29.09-2.16c0-.59.05-1.07.06-1.46s0-.7,0-1v-.73a20.15,20.15,0,0,0-.55-5,7.87,7.87,0,0,0-1.48-3.17,2.2,2.2,0,0,0-2.16-.79,4.57,4.57,0,0,0-2.57,2.12c-.8,1.34-1.49,2.4-2.08,3.19a13.58,13.58,0,0,1-1.52,1.78,3.32,3.32,0,0,1-1.09.75,2.67,2.67,0,0,1-.84.15,3.74,3.74,0,0,1-2-.54,6.8,6.8,0,0,1-1.56-1.33,9.89,9.89,0,0,1-1.2-1.71c-.34-.61-.65-1.19-.94-1.73l1.58-1.46.32,1a5.42,5.42,0,0,0,.5,1.06,3.54,3.54,0,0,0,.7.83,1.38,1.38,0,0,0,.92.34,1,1,0,0,0,.52-.17,3.69,3.69,0,0,0,.79-.71c.33-.35.76-.85,1.28-1.49s1.19-1.5,2-2.55a12.76,12.76,0,0,0-.58-2.68,3.47,3.47,0,0,0-1-1.5,4.73,4.73,0,0,0-1.67-.81c-.67-.19-1.5-.39-2.5-.62a7.78,7.78,0,0,1-1.74-.67,11.29,11.29,0,0,1-1.82-1.17c-.23-.17-.58-.49-1.07-1s-1.1-1-1.84-1.79h25.86l2.32,2.39Zm-2.31,0h-11.3a12.1,12.1,0,0,1,2.68,3.17,7.64,7.64,0,0,1,.79,3.3,6.69,6.69,0,0,1,2.2-1.74,2.59,2.59,0,0,1,1.91-.06,5,5,0,0,1,1.79,1.29,25.64,25.64,0,0,1,1.93,2.27Z" transform="translate(-91.1 -434.71)"/><path class="cls-1" d="M437,613.82q-.64-.86-1.41-1.74c-.52-.58-1.05-1.14-1.61-1.67A21.89,21.89,0,0,0,432.3,609a12.61,12.61,0,0,0-1.56-1.1,6.33,6.33,0,0,1-4.88,2.87,5.57,5.57,0,0,1-3.25-1,3.22,3.22,0,0,1-1.38-2.7,3.39,3.39,0,0,1,.37-1.56,3.82,3.82,0,0,1,1-1.22,4.55,4.55,0,0,1,1.39-.8,5.1,5.1,0,0,1,1.65-.28,7.33,7.33,0,0,1,3.51,1.29,3.66,3.66,0,0,0,.19-1.86c-.07-.81-.16-1.54-.27-2.16l2.39,1.36a8.64,8.64,0,0,1,.2,2c0,.62-.05,1.28-.11,2,.63.54,1.28,1.14,1.95,1.82s1.29,1.33,1.86,2a14.22,14.22,0,0,1,1.05,1.34c.22.33.42.67.62,1Zm-10.88-8.35c-1.6,0-2.42.51-2.48,1.45a1.26,1.26,0,0,0,1.2,1.33,4,4,0,0,0,2.14-.39,3.7,3.7,0,0,0,1.33-1.32,2.92,2.92,0,0,0-1-.71A5.23,5.23,0,0,0,426.11,605.47Z" transform="translate(-91.1 -434.71)"/><path class="cls-1" d="M460.16,575.7a31.57,31.57,0,0,0-2.57-2,32.65,32.65,0,0,0-3.21-2,12.72,12.72,0,0,0-3.36-1.37,14.68,14.68,0,0,0-3.58-.43,10,10,0,0,0-5.53,1.88q-3.12,2.06-3.29,4.59l.94,2.27h2.61l2.44,2.39h-4.19v25L438,603.67V581h-3.64L432,578.62h6.38L436.69,577a2.74,2.74,0,0,1-.94-1.92c0-2,1.08-3.77,3.25-5.49a10.33,10.33,0,0,1,6.13-2.4q7.62,0,14.56,7.2Z" transform="translate(-91.1 -434.71)"/><path class="cls-1" d="M462.13,581v25.18l-1.33-1.58a7.27,7.27,0,0,0-.32-.79c-.13-.28-.38-.75-.73-1.44a14.38,14.38,0,0,0-1.52-2.25,20.41,20.41,0,0,0-1.85-2,13.76,13.76,0,0,0-8.17-3.34l-3.13-4.45a58.1,58.1,0,0,1,14.73-7.54V581h-16.4l-2.36-2.39h23.69l2.31,2.39Zm-2.32,5.66a45.81,45.81,0,0,0-4.69,2.05,48.42,48.42,0,0,0-5,3,19.42,19.42,0,0,1,9.68,8.22Z" transform="translate(-91.1 -434.71)"/><path class="cls-1" d="M484.82,581v25.78l-1.89-1.2.17-2.52a20.3,20.3,0,0,0-1.88-8.48q-2.87-5-6.68-5a1.41,1.41,0,0,0-.69.21,6.46,6.46,0,0,1,1.59,3,3.82,3.82,0,0,1-.9,2.59,3,3,0,0,1-2.4,1.05q-4.62,0-4.62-4.49a5.26,5.26,0,0,1,1.71-4,6.2,6.2,0,0,1,4.2-1.63q5.06,0,8.9,8h.09V581H465.55l-2.36-2.39h23.35L489,581Z" transform="translate(-91.1 -434.71)"/><path class="cls-1" d="M497.33,581c-2.21.09-3.44,1.63-3.73,4.63a31.06,31.06,0,0,0,.65,6.64c.25,1.45.45,2.72.59,3.81a22,22,0,0,1,.21,2.74,6.77,6.77,0,0,1-.59,2.68,10.6,10.6,0,0,1-1.68,2.59,13.43,13.43,0,0,1-2.2,1.54,13.28,13.28,0,0,1-2.47,1.07l-1.36-1a14.12,14.12,0,0,0,2.31-1,6.14,6.14,0,0,0,1.84-1.52,6.36,6.36,0,0,0,1-4,11,11,0,0,0-.24-2.08,28.5,28.5,0,0,0-.7-2.8,18.26,18.26,0,0,1-.95-4.88q-.3-4.68,3.73-8.36h-7l-2.39-2.39h12.07l2.4,2.39Z" transform="translate(-91.1 -434.71)"/><path class="cls-1" d="M518.57,581a2.06,2.06,0,0,1,.47.69,6.38,6.38,0,0,1,.36,1.07,9.71,9.71,0,0,1,.22,1.24c0,.43.06.81.06,1.16a7.46,7.46,0,0,1-.45,2.59,4.61,4.61,0,0,1-1.56,2.07,2.79,2.79,0,0,1-.95.43c-.28.06-.54.1-.77.13h-.26a3.34,3.34,0,0,1-1.4,0,6.82,6.82,0,0,1-1.57-.56,8.46,8.46,0,0,1-1.86-1.33,6.18,6.18,0,0,1-2-4h-.09a11.05,11.05,0,0,1-1.71,3.93c-1.06,1.66-2.14,2.49-3.25,2.49a2.94,2.94,0,0,1-1.27-.32,11.28,11.28,0,0,1-1.39-.83c-.31-.32-.62-.66-.92-1a7.3,7.3,0,0,1-.75-1.12l.9-1.54a4.39,4.39,0,0,0,.94,1,2.17,2.17,0,0,0,1.24.45,3.38,3.38,0,0,0,2.45-1.71,6.36,6.36,0,0,0,.4-.9,11.16,11.16,0,0,0,.34-1.07c.1-.37.18-.74.24-1.09a5.36,5.36,0,0,0,.08-.88v-.26a.63.63,0,0,0-.12-.43v.05a.37.37,0,0,0-.2-.11l-.19-.07a1.17,1.17,0,0,0-.26,0h-8.39l-2.35-2.4h25.13l2.44,2.4Zm-4.16,6c2.2,0,3.3-.76,3.3-2.27a7.6,7.6,0,0,0-.09-.94,9.2,9.2,0,0,0-.25-1.27,4,4,0,0,0-.49-1.09.94.94,0,0,0-.76-.47h-6.33a6.68,6.68,0,0,0,.09,1.11,11.64,11.64,0,0,0,.23,1.29,6.26,6.26,0,0,0,.4,1.2,4.1,4.1,0,0,0,.6.94A4.33,4.33,0,0,0,514.41,587Z" transform="translate(-91.1 -434.71)"/><path class="cls-1" d="M516,590.14a3.91,3.91,0,0,1,1.38,1.05,8.5,8.5,0,0,1,1.72,3.49,7.56,7.56,0,0,1,.25,1.92,6.49,6.49,0,0,1-2.45,5.1,7.4,7.4,0,0,1-2.53,1.56,8.32,8.32,0,0,1-2.87.49q-6.67-.21-10.48-6.76a49,49,0,0,1-3.22-6.62,45,45,0,0,1-2-6.57l1.55,1v0q4.79,15.68,13.35,15.54a7.77,7.77,0,0,0,4.42-1.19,4.46,4.46,0,0,0,2.1-3.9,3.64,3.64,0,0,0-.31-1.46,4.33,4.33,0,0,0-.77-1.2,3.42,3.42,0,0,0-1.07-.79,2.48,2.48,0,0,0-1.15-.24l-1,.13a3.57,3.57,0,0,1,1,2.53c0,1.63-1,2.44-2.87,2.44a3.08,3.08,0,0,1-2.25-.9,3,3,0,0,1-.92-2.23,3.93,3.93,0,0,1,1.3-3.1,4.57,4.57,0,0,1,3.11-1.13,6.1,6.1,0,0,1,1.54.17q-.09,0,.54.15A6.81,6.81,0,0,1,516,590.14Z" transform="translate(-91.1 -434.71)"/><path class="cls-1" d="M551.66,581v25.18l-1.32-1.58a7.39,7.39,0,0,0-.33-.79c-.12-.28-.36-.75-.72-1.44a14.51,14.51,0,0,0-1.53-2.25,21.76,21.76,0,0,0-1.83-2,13.82,13.82,0,0,0-8.19-3.34l-3.12-4.45a57.78,57.78,0,0,1,14.73-7.54V581H533l-2.36-2.39h23.68l2.32,2.39Zm-2.31,5.66a45.81,45.81,0,0,0-4.69,2.05,47.39,47.39,0,0,0-5,3,19.42,19.42,0,0,1,9.68,8.22Z" transform="translate(-91.1 -434.71)"/><path class="cls-1" d="M555.43,581,553,578.62h22.69L578,581Zm24.41,31.78a40.44,40.44,0,0,0-9.4-7.2,41.22,41.22,0,0,0-10.69-4.06l-2.39-6.08a17.35,17.35,0,0,0,6.85,1.45,12.36,12.36,0,0,0,2.93-.36,17.92,17.92,0,0,0,3.06-1.09c2.15-1.29,3.21-2.82,3.21-4.59a6.34,6.34,0,0,0-.6-2.35,4.93,4.93,0,0,0-.62-1.26c-.24-.36-.47-.55-.7-.58-.6.8-1.22,1.59-1.87,2.37s-1.26,1.58-1.86,2.38l-2-1.07.26-1.28a2.08,2.08,0,0,0-.8-1.74,2.9,2.9,0,0,0-1.86-.62,3,3,0,0,0-1.92.64,2,2,0,0,0-.82,1.67,3.84,3.84,0,0,1,2.14.65,1.92,1.92,0,0,1,1,1.83,2.07,2.07,0,0,1-1,1.76,3.51,3.51,0,0,1-2.08.69,4.56,4.56,0,0,1-3.16-1.25,3.85,3.85,0,0,1-1.37-3,6.65,6.65,0,0,1,.47-2.57,5.91,5.91,0,0,1,1.3-2,5.76,5.76,0,0,1,2-1.28,7,7,0,0,1,2.54-.45,4,4,0,0,1,2.61,1.12,5.75,5.75,0,0,1,1,1.13,12.76,12.76,0,0,1,.75,1.31l3.59-4.37c.72.71,1.41,1.44,2.08,2.18a22.64,22.64,0,0,1,1.52,1.84,12.23,12.23,0,0,1,1.29,2.55,7.49,7.49,0,0,1,.47,2.51,7.71,7.71,0,0,1-2.57,5.69,12,12,0,0,1-5.74,3.13,67.36,67.36,0,0,1,6.32,4.62A60.6,60.6,0,0,1,579,610v0Z" transform="translate(-91.1 -434.71)"/><path class="cls-1" d="M601.46,581h-4.33v25.18l-.94-.94q-1.92-7.28-6.67-8.82a5.81,5.81,0,0,1-2.19,1.84,5.42,5.42,0,0,1-2.05.47,4,4,0,0,1-2.9-1.13,3.86,3.86,0,0,1-1.17-2.89,4,4,0,0,1,1.49-3.22,5.47,5.47,0,0,1,3.47-1,3.4,3.4,0,0,1,1.89.47c0-2-.44-3.48-1.33-4.37a8.35,8.35,0,0,0-3.3-1.5,18.15,18.15,0,0,1-2.2-.79,11.06,11.06,0,0,1-1.52-.79,10.49,10.49,0,0,1-2.23-2.4L575,578.62h24.11Zm-6.59,17.3V581H583.22a30,30,0,0,1,5.14,5,10,10,0,0,1,2.27,6.26v.55a4.83,4.83,0,0,1,0,.6,21.77,21.77,0,0,1,2.42,2.36,14.61,14.61,0,0,1,1.78,2.52Z" transform="translate(-91.1 -434.71)"/><path class="cls-1" d="M606.18,581v25l-2.32-2.39V585.9a4.71,4.71,0,0,0-.42-2,4.52,4.52,0,0,0-1.18-1.52,6,6,0,0,0-1.71-1,5.48,5.48,0,0,0-2-.37l-2.4-2.39h2.74a5.29,5.29,0,0,1,3.38,1,6.67,6.67,0,0,1,1.93,3.19c0-.48,0-1.08,0-1.8s-.09-1.55-.17-2.52-.11-1.77-.14-2.47,0-1.29,0-1.77l.86.72a7,7,0,0,0,1.5,3.69h1.71l2.35,2.39Z" transform="translate(-91.1 -434.71)"/><path class="cls-1" d="M634.69,575.7a31.35,31.35,0,0,0-2.56-2,31.71,31.71,0,0,0-3.22-2,12.45,12.45,0,0,0-3.36-1.37,14.6,14.6,0,0,0-3.57-.43,10,10,0,0,0-5.52,1.88q-3.13,2.06-3.3,4.59l.94,2.27h2.62l2.43,2.39H615v25l-2.45-2.39V581h-3.64l-2.35-2.39h6.38L611.23,577a2.74,2.74,0,0,1-.94-1.92c0-2,1.08-3.77,3.25-5.49a10.33,10.33,0,0,1,6.12-2.4q7.64,0,14.57,7.2Z" transform="translate(-91.1 -434.71)"/><path class="cls-1" d="M618,581l-2.36-2.39h26.85L645,581ZM641,606.84a1.62,1.62,0,0,1-.82-.41,3.45,3.45,0,0,1-.77-1c-.37-.75-.67-1.36-.92-1.85s-.41-.8-.49-.94a4.16,4.16,0,0,0-1.41-1.11,4.46,4.46,0,0,0-1.93-.39c-.43,0-.94,0-1.54.09s-1.3.14-2.1.26-1.46.19-2.08.23-1.14.06-1.56.06a7.38,7.38,0,0,1-5.61-2c-1.29-1.34-1.92-3.35-1.92-6a11.14,11.14,0,0,1,.55-3.69,9,9,0,0,1,1.59-2.87l.89,1a7.06,7.06,0,0,0-1.37,4.54,5.91,5.91,0,0,0,1.37,4.24,5.26,5.26,0,0,0,3.94,1.41c.23,0,.53,0,.88,0s.78-.07,1.26-.13l1.29-.15a9.27,9.27,0,0,1,.94-.07,11.07,11.07,0,0,1,7.41,2.79V586.37q0-1.5-1.41-1.5a7.22,7.22,0,0,0-2,.3,5,5,0,0,0-2,1.32,8,8,0,0,0-2.57,4,5.25,5.25,0,0,1,.71-.13,5.58,5.58,0,0,1,.7,0,1.54,1.54,0,0,1,.9.27,2.47,2.47,0,0,1,.64.69,3.47,3.47,0,0,1,.39.88,3.62,3.62,0,0,1,.13.9c0,1.82-1.06,2.74-3.17,2.74-2.83,0-4.24-1.62-4.24-4.84,0-2.06,1.14-4.11,3.43-6.17a10.22,10.22,0,0,1,3.31-2.1,9.89,9.89,0,0,1,3.24-.55,4.86,4.86,0,0,1,3,1.15A3.35,3.35,0,0,1,641,585.9Z" transform="translate(-91.1 -434.71)"/><path class="cls-1" d="M661.41,581v1.76a8,8,0,0,1,6.77,3.43,10.68,10.68,0,0,1,2.44,6.76,5,5,0,0,1-.3,1.72,4.81,4.81,0,0,1-.82,1.43,3.72,3.72,0,0,1-1.24,1,3.4,3.4,0,0,1-1.58.37,2.82,2.82,0,0,1-1.15-.24,3.92,3.92,0,0,1-1-.62,3.27,3.27,0,0,1-.72-.92,2.48,2.48,0,0,1-.28-1.18,2.57,2.57,0,0,1,.81-1.93,2.82,2.82,0,0,1,2-.77,2.49,2.49,0,0,1,1.31.35,3.85,3.85,0,0,1,1.05.94l.21-.56a6.12,6.12,0,0,0-2-4.45,7.06,7.06,0,0,0-5.56-2.06v20a1.52,1.52,0,0,1-.51-.19.73.73,0,0,1-.34-.36,24.6,24.6,0,0,0-2-3.92,20.56,20.56,0,0,0-2.59-3.24,12.19,12.19,0,0,0-7.29-3.72l-3.37-4.2A44.37,44.37,0,0,1,659.14,583v-2H643.56l-2.45-2.39h30.32l2.48,2.39Zm-2.4,5.31a32.83,32.83,0,0,0-4.36,2,53.18,53.18,0,0,0-4.63,2.93,17.4,17.4,0,0,1,8.91,8H659Z" transform="translate(-91.1 -434.71)"/><path class="cls-1" d="M703.16,581v25.18l-1.32-1.58a5.69,5.69,0,0,0-.32-.79c-.13-.28-.37-.75-.73-1.44a14.38,14.38,0,0,0-1.52-2.25,21.74,21.74,0,0,0-1.84-2,13.76,13.76,0,0,0-8.18-3.34l-3.12-4.45a57.88,57.88,0,0,1,14.72-7.54V581h-16.4l-2.35-2.39h23.68l2.31,2.39Zm-2.31,5.66a45.81,45.81,0,0,0-4.69,2.05,47.3,47.3,0,0,0-5,3,19.39,19.39,0,0,1,9.67,8.22Z" transform="translate(-91.1 -434.71)"/><path class="cls-1" d="M715.71,581q-3.3.13-3.72,4.63a31,31,0,0,0,.64,6.64c.26,1.45.45,2.72.6,3.81a22,22,0,0,1,.21,2.74,6.62,6.62,0,0,1-.6,2.68,10.26,10.26,0,0,1-1.67,2.59,13.87,13.87,0,0,1-2.2,1.54,13.57,13.57,0,0,1-2.47,1.07l-1.37-1a14.62,14.62,0,0,0,2.32-1,6.27,6.27,0,0,0,1.84-1.52,6.37,6.37,0,0,0,1-4,10.94,10.94,0,0,0-.23-2.08,26.18,26.18,0,0,0-.71-2.8,18.16,18.16,0,0,1-.94-4.88q-.3-4.68,3.73-8.36h-7l-2.4-2.39h12.08l2.39,2.39Z" transform="translate(-91.1 -434.71)"/><path class="cls-1" d="M733.91,581v25.18l-1.32-1.58a7.39,7.39,0,0,0-.33-.79c-.12-.28-.36-.75-.72-1.44a14.51,14.51,0,0,0-1.53-2.25,21.76,21.76,0,0,0-1.83-2,13.82,13.82,0,0,0-8.19-3.34l-3.12-4.45a57.78,57.78,0,0,1,14.73-7.54V581H715.2l-2.36-2.39h23.68l2.31,2.39Zm-2.31,5.66a45.81,45.81,0,0,0-4.69,2.05,47.39,47.39,0,0,0-5,3,19.42,19.42,0,0,1,9.68,8.22Z" transform="translate(-91.1 -434.71)"/><path class="cls-1" d="M759.05,581v25.27l-1.18-1.35c-.39-.44-.76-.89-1.13-1.35,0-.86,0-1.58.08-2.16s0-1.07.06-1.46,0-.7,0-1v-.73a20.12,20.12,0,0,0-.56-5,7.74,7.74,0,0,0-1.48-3.17,2.2,2.2,0,0,0-2.16-.79,4.6,4.6,0,0,0-2.57,2.12c-.8,1.34-1.49,2.4-2.08,3.19a13.58,13.58,0,0,1-1.52,1.78,3.3,3.3,0,0,1-1.08.75,2.77,2.77,0,0,1-.84.15,3.77,3.77,0,0,1-2-.54,6.8,6.8,0,0,1-1.56-1.33,9.89,9.89,0,0,1-1.2-1.71c-.34-.61-.65-1.19-.94-1.73l1.59-1.46c.08.28.19.62.32,1a5.39,5.39,0,0,0,.49,1.06,3.54,3.54,0,0,0,.7.83,1.41,1.41,0,0,0,.93.34,1,1,0,0,0,.51-.17,3.69,3.69,0,0,0,.79-.71c.33-.35.76-.85,1.29-1.49s1.19-1.5,2-2.55a12.23,12.23,0,0,0-.57-2.68,3.38,3.38,0,0,0-1-1.5,4.65,4.65,0,0,0-1.67-.81c-.67-.19-1.5-.39-2.51-.62a8.31,8.31,0,0,1-1.73-.67,11.23,11.23,0,0,1-1.81-1.17,12.6,12.6,0,0,1-1.08-1c-.48-.45-1.09-1-1.84-1.79h25.87l2.31,2.39Zm-2.31,0H745.43a11.72,11.72,0,0,1,2.68,3.17,7.5,7.5,0,0,1,.79,3.3,6.69,6.69,0,0,1,2.2-1.74,2.59,2.59,0,0,1,1.91-.06,5.06,5.06,0,0,1,1.8,1.29,29.53,29.53,0,0,1,1.93,2.27Z" transform="translate(-91.1 -434.71)"/><path class="cls-1" d="M768.17,581v25l-2.32-2.39V585.9a4.71,4.71,0,0,0-.42-2,4.4,4.4,0,0,0-1.18-1.52,6,6,0,0,0-1.71-1,5.48,5.48,0,0,0-2-.37l-2.4-2.39h2.74a5.27,5.27,0,0,1,3.38,1,6.67,6.67,0,0,1,1.93,3.19c0-.48,0-1.08,0-1.8s-.09-1.55-.17-2.52-.1-1.77-.14-2.47,0-1.29,0-1.77l.85.72a7,7,0,0,0,1.5,3.69h1.71l2.35,2.39Z" transform="translate(-91.1 -434.71)"/><path class="cls-1" d="M796.69,575.7a31.57,31.57,0,0,0-2.57-2,32.65,32.65,0,0,0-3.21-2,12.65,12.65,0,0,0-3.37-1.37,14.6,14.6,0,0,0-3.57-.43,10,10,0,0,0-5.52,1.88q-3.13,2.06-3.3,4.59l.94,2.27h2.62l2.43,2.39H777v25l-2.44-2.39V581h-3.65l-2.35-2.39h6.38L773.22,577a2.74,2.74,0,0,1-.94-1.92c0-2,1.08-3.77,3.25-5.49a10.33,10.33,0,0,1,6.12-2.4q7.64,0,14.57,7.2Z" transform="translate(-91.1 -434.71)"/><path class="cls-1" d="M798.82,581v25.48a13.06,13.06,0,0,1-2.65-3.68,18.23,18.23,0,0,0-3.47-4.58,12.24,12.24,0,0,0-7.1-2.36l-3.21-4.15q1.92-1.85,3.78-3.51a42.3,42.3,0,0,1,3.45-2.83,5.91,5.91,0,0,0-1.67-1.07c-.83-.4-1.92-.85-3.3-1.37-3.22-.94-5.44-2.38-6.64-4.32h22.23l2.48,2.39Zm-12.37,21.24a2.4,2.4,0,0,1,.73-1.75,2.34,2.34,0,0,1,1.71-.73,2.45,2.45,0,0,1,1.76,4.2,2.42,2.42,0,0,1-1.76.73,2.49,2.49,0,0,1-2.44-2.45Zm10-21.24h-9.22a16.36,16.36,0,0,1,2.66,2.19,46.45,46.45,0,0,1,3.34,3.68c-1,.91-1.94,1.86-2.92,2.85s-2,2-2.94,3.1a16.36,16.36,0,0,1,9,7.28h.09Z" transform="translate(-91.1 -434.71)"/><path class="cls-1" d="M819.64,581v1.76a8,8,0,0,1,6.76,3.43,10.64,10.64,0,0,1,2.45,6.76,5.05,5.05,0,0,1-1.12,3.15,3.93,3.93,0,0,1-1.24,1,3.42,3.42,0,0,1-1.59.37,2.89,2.89,0,0,1-1.15-.24,3.87,3.87,0,0,1-1-.62,2.94,2.94,0,0,1-.72-.92,2.48,2.48,0,0,1-.28-1.18,2.57,2.57,0,0,1,.81-1.93,2.82,2.82,0,0,1,2-.77,2.49,2.49,0,0,1,1.31.35,3.85,3.85,0,0,1,1,.94l.21-.56a6.16,6.16,0,0,0-2-4.45A7.07,7.07,0,0,0,819.6,586v20a1.56,1.56,0,0,1-.52-.19.78.78,0,0,1-.34-.36,23.06,23.06,0,0,0-2-3.92,20,20,0,0,0-2.59-3.24,12.19,12.19,0,0,0-7.28-3.72l-3.38-4.2A44.59,44.59,0,0,1,817.36,583v-2H801.78l-2.44-2.39h30.32l2.48,2.39Zm-2.4,5.31a32.25,32.25,0,0,0-4.36,2,50.33,50.33,0,0,0-4.63,2.93,17.34,17.34,0,0,1,8.9,8h.09Z" transform="translate(-91.1 -434.71)"/><path class="cls-1" d="M865.93,581v25l-2.58-2.48.35-12.81a3.31,3.31,0,0,0-.26-1.22,9.71,9.71,0,0,0-.73-1.43,9.53,9.53,0,0,0-.94-1.24,7.8,7.8,0,0,0-.9-.86l-8.43,8.48L849,593.22q2.47-2.36,2.48-3.73c0-1.65-.49-2.48-1.45-2.48a2.17,2.17,0,0,0-.73.13c-.26.08-.59.2-1,.34a4.69,4.69,0,0,1-1.72.47,1.8,1.8,0,0,1-1.31-.6,1.88,1.88,0,0,1-.57-1.33,4.45,4.45,0,0,1,.91-2.56,9.92,9.92,0,0,1,2.59-2.4,14.12,14.12,0,0,1,3.09-1.5,9.3,9.3,0,0,1,2.91-.51c3.51,0,6.79,2.58,9.81,7.74l.09,0q-.14-3.12-.3-6.29c-.12-2.11-.21-4.23-.3-6.34l1.07.9a18,18,0,0,0,.38,2.48,1.86,1.86,0,0,0,1.84,1.2,4.48,4.48,0,0,0,.77-.08L870,581Zm-7.12,2.45a5,5,0,0,0-3.76-1.85,5.75,5.75,0,0,0-5.61,3.26,3.16,3.16,0,0,1,2.8,1.28,4.63,4.63,0,0,1,.66,3.22Z" transform="translate(-91.1 -434.71)"/><path class="cls-1" d="M866.06,607.61a10.73,10.73,0,0,1-1.33-2.1c-.86-1.49-1.36-2.34-1.5-2.57-1-1-2.59-1.54-4.8-1.54-.71,0-1.46,0-2.24,0l-2.81.13a7.8,7.8,0,0,1-3.51-.64,5.65,5.65,0,0,1-2.74-2.27,6.42,6.42,0,0,1-1.07-3.51c.06-2.46.14-3.63.25-3.52l1.2,1.2a2.69,2.69,0,0,0-.12,1.72,4.39,4.39,0,0,0,2.7,3.12,8.31,8.31,0,0,0,2.77.43l3.35.17a15.44,15.44,0,0,1,3.21.47,18.37,18.37,0,0,1,1.75.6,7.74,7.74,0,0,1,2.53,2.1,10.44,10.44,0,0,1,2,3.34A9.55,9.55,0,0,1,866.06,607.61Z" transform="translate(-91.1 -434.71)"/><path class="cls-1" d="M894.52,575.7a31.35,31.35,0,0,0-2.56-2,31.71,31.71,0,0,0-3.22-2,12.45,12.45,0,0,0-3.36-1.37,14.6,14.6,0,0,0-3.57-.43,10,10,0,0,0-5.52,1.88q-3.13,2.06-3.3,4.59l.94,2.27h2.62L879,581h-4.19v25l-2.45-2.39V581H868.7l-2.35-2.39h6.38L871.06,577a2.74,2.74,0,0,1-.94-1.92c0-2,1.08-3.77,3.25-5.49a10.33,10.33,0,0,1,6.12-2.4q7.63,0,14.57,7.2Z" transform="translate(-91.1 -434.71)"/><path class="cls-1" d="M906.69,581H878.13l-2.53-2.39h28.57Zm-3,12.64a7.38,7.38,0,0,1-.75,3.29,10,10,0,0,1-2,2.79,9.53,9.53,0,0,1-6.38,2.44q-9.63,0-15-19.57l1.37.51c1,2.37,1.92,4.41,2.76,6.1a30.37,30.37,0,0,0,2.08,3.71q3.72,5.43,8.95,5.44a7.91,7.91,0,0,0,5-2,6.17,6.17,0,0,0,2-4.5,5.91,5.91,0,0,0-1.11-3.56,3.83,3.83,0,0,0-3.13-1.84,8.21,8.21,0,0,0-1.75.3,4.47,4.47,0,0,1,1,2.83q0,3.46-3.81,3.47a3.69,3.69,0,0,1-3-1.37,5.21,5.21,0,0,1-1.11-3.34,4.56,4.56,0,0,1,1.85-3.73,6,6,0,0,1,3.93-1.33,8,8,0,0,1,3.64.84,10.09,10.09,0,0,1,3,2.33,10.83,10.83,0,0,1,1.88,3.32A11.47,11.47,0,0,1,903.7,593.65Z" transform="translate(-91.1 -434.71)"/><path class="cls-1" d="M922.41,581A23.75,23.75,0,0,1,927,594.89a9.6,9.6,0,0,1-2.57,6.59,7.73,7.73,0,0,1-6.12,2.83,10.69,10.69,0,0,1-6.12-1.76,5.56,5.56,0,0,1-2.7-5.39c0-.29,0-.62,0-1s0-.68,0-.94l3.73-1.5a6.6,6.6,0,0,1-1.46-.53,13.65,13.65,0,0,1-1.46-.84c-1.17-.8-1.75-1.61-1.75-2.44a6.3,6.3,0,0,1,1.28-2.83,7,7,0,0,0,1.34-2.78,2.63,2.63,0,0,0-1.36-2.42,8.08,8.08,0,0,0-3.79-.88l-2.35-2.39h14.9l-1.84-3a16.1,16.1,0,0,1-.9-1.58,11.71,11.71,0,0,1-1.46-5,5.26,5.26,0,0,1,.6-2.36,9.12,9.12,0,0,1,1.59-2.23c.46.32.91.62,1.39.9s.93.58,1.39.9a5,5,0,0,0-2.53,4.15,7,7,0,0,0,.37,2.21,11.28,11.28,0,0,0,1,2.25,9.49,9.49,0,0,0,.92,1.35l1.86,2.42h6.56L930,581Zm-4.07,8.23a11.86,11.86,0,0,0-3.47-3.22,3.61,3.61,0,0,0-1.09.63,9.05,9.05,0,0,0-1,.91,3.67,3.67,0,0,0-.94,2.15c0,1.77.74,2.65,2.23,2.65a5.46,5.46,0,0,0,2.66-1c1-.72,1.58-1.42,1.58-2.1Zm1.59-4.33a10.22,10.22,0,0,0-.74-3.9h-6.93l3.49,3.32c1.18,1.13,2.38,2.22,3.58,3.28A4.14,4.14,0,0,0,919.93,584.91Zm4.53,7.54a13.28,13.28,0,0,0-2.4-7.84,13.13,13.13,0,0,1-2.31,8,15.07,15.07,0,0,1-1.79,1.84,25.88,25.88,0,0,1-2.49,1.93,15.86,15.86,0,0,0-1.69,1.28,1.5,1.5,0,0,0-.62,1c0,2.22,1.27,3.34,3.81,3.34a6.42,6.42,0,0,0,5.52-3.17A11,11,0,0,0,924.46,592.45Z" transform="translate(-91.1 -434.71)"/><path class="cls-1" d="M933.24,581v25l-2.31-2.39V585.9a4.57,4.57,0,0,0-.43-2,4.4,4.4,0,0,0-1.18-1.52,5.87,5.87,0,0,0-1.71-1,5.44,5.44,0,0,0-2-.37l-2.4-2.39H926a5.3,5.3,0,0,1,3.39,1,6.66,6.66,0,0,1,1.92,3.19c0-.48,0-1.08,0-1.8s-.09-1.55-.17-2.52-.1-1.77-.13-2.47,0-1.29,0-1.77l.85.72a7,7,0,0,0,1.5,3.69H935l2.35,2.39Z" transform="translate(-91.1 -434.71)"/><path class="cls-1" d="M955.63,581v25.78l-1.88-1.2.17-2.52a20.62,20.62,0,0,0-1.88-8.48q-2.87-5-6.68-5a1.41,1.41,0,0,0-.69.21,6.46,6.46,0,0,1,1.59,3,3.82,3.82,0,0,1-.9,2.59,3,3,0,0,1-2.4,1.05q-4.62,0-4.62-4.49a5.26,5.26,0,0,1,1.71-4,6.18,6.18,0,0,1,4.2-1.63c3.36,0,6.34,2.66,8.9,8h.09V581H936.36L934,578.62h23.34l2.49,2.39Z" transform="translate(-91.1 -434.71)"/></svg>