<svg xmlns="http://www.w3.org/2000/svg" xmlns:xlink="http://www.w3.org/1999/xlink" viewBox="0 0 235.09 53.4"><defs><style>.cls-1{fill:url(#linear-gradient);}.cls-2{fill:url(#linear-gradient-2);}.cls-3{fill:url(#linear-gradient-3);}.cls-4{fill:url(#linear-gradient-4);}.cls-5{fill:url(#linear-gradient-5);}.cls-6{fill:url(#linear-gradient-6);}.cls-7{fill:url(#linear-gradient-7);}.cls-8{fill:url(#linear-gradient-8);}.cls-9{fill:url(#linear-gradient-9);}.cls-10{fill:url(#linear-gradient-10);}.cls-11{fill:url(#linear-gradient-11);}.cls-12{fill:url(#linear-gradient-12);}.cls-13{fill:url(#linear-gradient-13);}.cls-14{fill:url(#linear-gradient-14);}.cls-15{fill:url(#linear-gradient-15);}.cls-16{fill:#003447;}</style><linearGradient id="linear-gradient" x1="31.72" y1="39.9" x2="-8.8" y2="38.96" gradientUnits="userSpaceOnUse"><stop offset="0" stop-color="#284d7e"/><stop offset="1" stop-color="#42aca1"/></linearGradient><linearGradient id="linear-gradient-2" x1="31.73" y1="39.48" x2="-8.79" y2="38.54" xlink:href="#linear-gradient"/><linearGradient id="linear-gradient-3" x1="41.26" y1="2.6" x2="43.57" y2="2.6" xlink:href="#linear-gradient"/><linearGradient id="linear-gradient-4" x1="19.69" y1="19.01" x2="35.15" y2="19.01" xlink:href="#linear-gradient"/><linearGradient id="linear-gradient-5" x1="3.79" y1="19.79" x2="54.44" y2="16.23" xlink:href="#linear-gradient"/><linearGradient id="linear-gradient-6" x1="3.62" y1="17.37" x2="54.27" y2="13.81" xlink:href="#linear-gradient"/><linearGradient id="linear-gradient-7" x1="9.83" y1="17.47" x2="9.84" y2="17.47" xlink:href="#linear-gradient"/><linearGradient id="linear-gradient-8" x1="9.85" y1="17.1" x2="9.97" y2="17.1" xlink:href="#linear-gradient"/><linearGradient id="linear-gradient-9" x1="10.02" y1="16.34" x2="10.17" y2="16.34" xlink:href="#linear-gradient"/><linearGradient id="linear-gradient-10" x1="9.83" y1="17.44" x2="9.85" y2="17.44" xlink:href="#linear-gradient"/><linearGradient id="linear-gradient-11" x1="9.9" y1="16.77" x2="10.07" y2="16.77" xlink:href="#linear-gradient"/><linearGradient id="linear-gradient-12" x1="10.07" y1="12.7" x2="19.69" y2="12.7" xlink:href="#linear-gradient"/><linearGradient id="linear-gradient-13" x1="25.46" y1="50.31" x2="4.46" y2="15.8" xlink:href="#linear-gradient"/><linearGradient id="linear-gradient-14" x1="10.17" y1="12.54" x2="29.66" y2="12.54" xlink:href="#linear-gradient"/><linearGradient id="linear-gradient-15" x1="44.71" y1="1.93" x2="32.9" y2="50.7" xlink:href="#linear-gradient"/></defs><title>Asset 12</title><g id="Layer_2" data-name="Layer 2"><g id="Layer_1-2" data-name="Layer 1"><path class="cls-1" d="M9,44.34a10,10,0,0,1-9-9.93H9v9A9.1,9.1,0,0,0,9,44.34Z"/><path class="cls-2" d="M35.88,34.41a10,10,0,0,1-10,10H20.42v-10Z"/><path class="cls-3" d="M43.57,3.63c-.2-.24-.42-.48-.64-.71a11.47,11.47,0,0,0-1.67-1.35,9.06,9.06,0,0,1,1.67,1.35A6.13,6.13,0,0,1,43.57,3.63Z"/><rect class="cls-4" x="19.69" y="18.99" width="15.46" height="0.04"/><path class="cls-5" d="M35.15,9V19H19.69V19a10,10,0,0,0-10,10V19c0-.25,0-.49,0-.73s0-.22,0-.33a1,1,0,0,1,0-.17,2.51,2.51,0,0,1,0-.27v0s0-.05,0-.07h0l.05-.22.06-.3s0,0,0-.05v0a.53.53,0,0,1,0-.12.2.2,0,0,1,0-.07l.15-.53a10,10,0,0,1,9.52-7h9c.3,0,.61-.05.92-.05Z"/><path class="cls-6" d="M55.57,19h-9V9.07A10,10,0,0,1,55.57,19Z"/><path class="cls-7" d="M9.84,17.46v0s0,0,0,0Z"/><path class="cls-8" d="M10,16.81s0,0,0,.05l-.06.3-.05.22c0-.1,0-.2.05-.3l0-.1a.15.15,0,0,1,0-.09A.24.24,0,0,1,10,16.81Z"/><path class="cls-9" d="M10.17,16.07,10,16.6c0-.08,0-.16.05-.23A2.64,2.64,0,0,1,10.17,16.07Z"/><path class="cls-10" d="M9.85,17.39s0,0,0,.07v0s0,0,0,0A.25.25,0,0,1,9.85,17.39Z"/><path class="cls-11" d="M10.07,16.37c0,.07,0,.15-.05.23a.2.2,0,0,0,0,.07.53.53,0,0,0,0,.12v0s0,0,0,.05l-.06.3v-.08l0-.1a.15.15,0,0,1,0-.09A4.37,4.37,0,0,1,10.07,16.37Z"/><path class="cls-12" d="M19.69,9v.05a10,10,0,0,0-9.52,7,2.64,2.64,0,0,0-.1.3c0-.15.08-.29.13-.43l0-.13c0-.12.08-.25.13-.37a9.36,9.36,0,0,1,.55-1.2c.16-.28.33-.55.5-.82h0c.19-.27.38-.53.58-.77h0l.12-.13a6.89,6.89,0,0,1,.52-.56c.19-.19.37-.36.57-.53a1.42,1.42,0,0,1,.13-.12h0c.24-.2.5-.39.76-.57h0a8.54,8.54,0,0,1,.82-.5,7.54,7.54,0,0,1,1.19-.55,2.92,2.92,0,0,1,.38-.14L17,9.38c.21-.06.42-.11.64-.15l.4-.08h.11l.27,0h.05a3.64,3.64,0,0,1,.45,0h0C19.2,9,19.45,9,19.69,9Z"/><path class="cls-13" d="M19.69,19V53.4a10,10,0,0,1-9.93-9.06,9.1,9.1,0,0,1,0-.91V29A10,10,0,0,1,19.69,19Z"/><path class="cls-14" d="M29.66,9c-.31,0-.62,0-.92.05h-9a10,10,0,0,0-9.52,7l0-.13,0-.13c0-.12.08-.25.13-.37a9.36,9.36,0,0,1,.55-1.2c.16-.28.33-.55.5-.82h0c.19-.27.38-.53.58-.77h0l.12-.13a6.89,6.89,0,0,1,.52-.56c.19-.19.37-.36.57-.53a1.42,1.42,0,0,1,.13-.12h0c.24-.2.5-.39.76-.57h0a8.54,8.54,0,0,1,.82-.5,7.54,7.54,0,0,1,1.19-.55,2.92,2.92,0,0,1,.38-.14L17,9.38c.21-.06.42-.11.64-.15l.4-.08h.11l.27,0h.05a3.64,3.64,0,0,1,.45,0h0c.23,0,.48,0,.72,0Z"/><path class="cls-15" d="M45.85,10V34.41c0,.24,0,.49,0,.72s0,.3,0,.46,0,.28-.06.42,0,.28-.07.42a11.72,11.72,0,0,1-.32,1.16c0,.13-.08.25-.13.38a10.81,10.81,0,0,1-.55,1.2c-.16.27-.33.55-.5.81h0c-.19.26-.38.52-.58.76h0a12.11,12.11,0,0,1-1.34,1.34h0c-.24.2-.5.39-.76.58h0c-.26.17-.54.34-.82.5a9.89,9.89,0,0,1-1.19.55l-.38.13a9.18,9.18,0,0,1-1.17.32l-.41.07-.42.06a3.57,3.57,0,0,1-.46,0c-.23,0-.48,0-.72,0h-10a10,10,0,0,0,10-10V0l3,.45a8.15,8.15,0,0,1,.91.34,8.65,8.65,0,0,1,.87.41l.63.37a11.47,11.47,0,0,1,1.67,1.35c.22.23.44.47.64.71s.2.25.3.37.19.26.28.39l.25.41a9.82,9.82,0,0,1,1,2.08l.11.35c0,.11.06.21.08.32a1.55,1.55,0,0,1,.08.36,2.29,2.29,0,0,1,.07.36l0,.31a3.86,3.86,0,0,1,.06.49C45.84,9.37,45.85,9.67,45.85,10Z"/><path class="cls-16" d="M105.57,6.85q3.32,0,6.62,7.84V1.83c0-.29.11-.43.34-.43a2,2,0,0,1,.76.18,7.46,7.46,0,0,1,.8.4,2.71,2.71,0,0,1,.49.34,7.61,7.61,0,0,1,1.47,1.32,2.52,2.52,0,0,1,.73,1.68V6.91a5.2,5.2,0,0,1,1.11.55,15.3,15.3,0,0,1,1.41,1.35,5.15,5.15,0,0,1,.58.74,3.62,3.62,0,0,1,.4.85v.31a.94.94,0,0,1-.07.34.23.23,0,0,1-.24.15h-3.19V36.44q.14,5.09.07,10.17c0,1.64-.07,3.29-.07,5q0,.42-.3.42a2.08,2.08,0,0,1-.8-.18,6.63,6.63,0,0,1-.8-.4,3.29,3.29,0,0,1-.49-.33.7.7,0,0,0-.18-.13,7.27,7.27,0,0,1-1.32-1.25,2.85,2.85,0,0,1-.7-1.69v-15q-.06-2-.25-5.88-.36-14.64-5.82-15.87a.54.54,0,0,1-.06.25,31.1,31.1,0,0,0-.86,7.78,96.87,96.87,0,0,0,.5,9.74q.24,3,.42,6.07v.49a13.61,13.61,0,0,1-.09,3.61,3.27,3.27,0,0,1-2,2.58,5.24,5.24,0,0,1-4-.25,12.41,12.41,0,0,1-3.62-2.33,11.41,11.41,0,0,1-5.7,4.84,11.72,11.72,0,0,1-8.6,0,24.66,24.66,0,0,1-7.57-4.62,32.51,32.51,0,0,1-6.43-7.08,15.1,15.1,0,0,1-2.64-9,9.78,9.78,0,0,1,3.31-6.92,8.17,8.17,0,0,1,7-1.78,3.79,3.79,0,0,1,1.8.92,7.66,7.66,0,0,1,1.38,1.6,2,2,0,0,1,.43.7,1.29,1.29,0,0,1,.09.8c-.06.22-.29.31-.7.27a5.88,5.88,0,0,0-3.31.25,8.13,8.13,0,0,0-2.94,1.9A9,9,0,0,0,70,28.36a15.31,15.31,0,0,0,.79,3.43l.8,1.47a.74.74,0,0,0,.15.27c.11.15.21.3.31.46l.21.37.25.37.12.12a5.82,5.82,0,0,0,.52.58l.52.52.06.13L75,37.18c.45.37.9.71,1.35,1l.33.25.53.36a1.39,1.39,0,0,0,.42.25s.07,0,.07.06h.12a1.42,1.42,0,0,0,.34.24,2.82,2.82,0,0,0,.42.22l.34.15c.25.12.51.25.8.37h.12a.38.38,0,0,0,.15.09.63.63,0,0,0,.19,0,.2.2,0,0,1,.15.06,9.08,9.08,0,0,0,1.84.31,10.63,10.63,0,0,0,6.43-1.78,10.92,10.92,0,0,0,4.2-5.48,11.83,11.83,0,0,0,.33-6.89,7.47,7.47,0,0,0-.3-1A13.65,13.65,0,0,0,88.11,19a12.66,12.66,0,0,1-.06,7.29L87.8,27a8.54,8.54,0,0,1,1.72,3.31,4.87,4.87,0,0,1-.43,3.61,4.46,4.46,0,0,1-2.36,1.87,5.22,5.22,0,0,1-3,.15,4.71,4.71,0,0,1-2.21-1.35,8.9,8.9,0,0,1-.95-1A2.6,2.6,0,0,1,80,32.4a3.82,3.82,0,0,1,.09-2.27A18.57,18.57,0,0,1,81,28l.25-.49c.12-.21.24-.43.37-.68a34.84,34.84,0,0,0,1.65-3.55A11.61,11.61,0,0,0,84,18.55a12.54,12.54,0,0,0-.31-2.14l-.37-1.23-.18-.36a.31.31,0,0,0,0-.13L83,14.51v-.12s-.06,0-.06-.06a4.13,4.13,0,0,1-.22-.49.83.83,0,0,1,0-.49.41.41,0,0,1,.37-.31,1.61,1.61,0,0,1,1,.21,9.62,9.62,0,0,1,.95.59.17.17,0,0,0,.12.06,42.64,42.64,0,0,1,8.27,7.53,19.54,19.54,0,0,1,4.53,9.44,12.84,12.84,0,0,1-.61,6.37,2.14,2.14,0,0,0,1.14.46,3,3,0,0,0,1.62-.15,2.51,2.51,0,0,0,1.22-1.29,6.8,6.8,0,0,0,.31-3v-.49c0-1.15-.1-2.27-.18-3.37s-.19-2.39-.31-3.62-.18-2.61-.31-3.92a55.84,55.84,0,0,1,.06-10.66h-37a2.8,2.8,0,0,1-1.75-.64,11.64,11.64,0,0,1-1.44-1.32,5,5,0,0,1-.58-.73,3.88,3.88,0,0,1-.4-.86V7.34A.72.72,0,0,1,59.75,7,.23.23,0,0,1,60,6.85Z"/><path class="cls-16" d="M149.68,45a5.48,5.48,0,0,1-1.59-.24.82.82,0,0,1-.43-.19A16.52,16.52,0,0,1,141,39.81,31.93,31.93,0,0,1,138,36.14l-.67-1a5.57,5.57,0,0,1-1,1.41,7.39,7.39,0,0,1-5.21,2.2,7.7,7.7,0,0,1-3-.61,12.77,12.77,0,0,1-5.27-4.29,7.11,7.11,0,0,1-1.59-4,3.58,3.58,0,0,1,.18-1.11,4.24,4.24,0,0,1,3-2.75,6.67,6.67,0,0,1,1.6-.19,12.57,12.57,0,0,1,2.2.19,14.65,14.65,0,0,1,5.52,2.45l.06-.74a7.19,7.19,0,0,0-.86-3.31c-.25-.36-.85-1.19-1.81-2.48a38.12,38.12,0,0,1-2.69-4.13,10.08,10.08,0,0,1-1.32-4.84,5.91,5.91,0,0,1,.24-1.72h-7.66a3,3,0,0,1-1.77-.61,9.27,9.27,0,0,1-2-2.08,1.79,1.79,0,0,1-.43-1.11c0-.36.1-.55.3-.55h36.86a3.06,3.06,0,0,1,1.87.61,11,11,0,0,1,2,2.09,3,3,0,0,1,.43,1.16c0,.33-.13.49-.37.49h-3.19a28.16,28.16,0,0,0-1.1,7.35v1.66q0,5.09.43,10.23l.37,3.55c.2,2.21.3,4.39.3,6.56A4.4,4.4,0,0,1,152,44.29,4.11,4.11,0,0,1,149.68,45ZM127.93,34.48l.62-.06a6.46,6.46,0,0,0,4.65-3.61h-.06a5,5,0,0,0-1.25-.43,9.23,9.23,0,0,0-2.24-.25,4.72,4.72,0,0,0-1.84.37A2.91,2.91,0,0,0,126,33.2C126,34.05,126.67,34.48,127.93,34.48Zm18.38,6.13.62-.06c1.3-.29,2-1.43,2-3.43-.12-3.07-.29-6.13-.49-9.19q-.61-7.23-.61-11.64a42.94,42.94,0,0,1,.3-5.09H135.23a7.18,7.18,0,0,0-1.66,1.17,6.06,6.06,0,0,0-1.84,4.1A6.61,6.61,0,0,0,132.9,20c.28.49,1,1.56,2.26,3.19,2.21,2.9,3.31,5.57,3.31,8l-.12,1.4c1.67,2.13,2.86,3.7,3.55,4.72.49.66.78,1,.86,1.14s.29.31.61.64A4.09,4.09,0,0,0,146.31,40.61Z"/><path class="cls-16" d="M152.81,6.85q3.3,0,6.62,7.84V1.83c0-.29.11-.43.33-.43a2,2,0,0,1,.77.18,7.28,7.28,0,0,1,.79.4,2.38,2.38,0,0,1,.49.34,7.36,7.36,0,0,1,1.48,1.32A2.57,2.57,0,0,1,164,5.32V6.91a5.14,5.14,0,0,1,1.1.55,15.3,15.3,0,0,1,1.41,1.35,4,4,0,0,1,.58.74,3,3,0,0,1,.4.85v.31a.93.93,0,0,1-.06.34.23.23,0,0,1-.24.15H164V36.44q.12,5.09.06,10.17c0,1.64-.06,3.29-.06,5,0,.28-.1.42-.31.42a2,2,0,0,1-.79-.18,6,6,0,0,1-.8-.4,2.81,2.81,0,0,1-.49-.33.7.7,0,0,0-.18-.13,7.27,7.27,0,0,1-1.32-1.25,2.85,2.85,0,0,1-.7-1.69v-15q-.08-2-.25-5.88-.44-15.87-6.8-16a1.81,1.81,0,0,1-1.35-.67c-.41-.41-.79-.84-1.16-1.29a4,4,0,0,1-.58-.73,3.15,3.15,0,0,1-.4-.86l-.06-.31a.63.63,0,0,1,.09-.33.29.29,0,0,1,.27-.16Z"/><path class="cls-16" d="M195.45,45a3.38,3.38,0,0,1-1.62-.61A7.55,7.55,0,0,1,192,42.88a2.8,2.8,0,0,1-.8-1.78V36.69l-.06-.43a23.71,23.71,0,0,0-.55-3.16,17.4,17.4,0,0,0-.92-2.91l-.06-.12a21.13,21.13,0,0,0-1-2.2,16.15,16.15,0,0,0-2-3.07q-2.82-3.12-4.35-3.12a3.52,3.52,0,0,0-.8.12q-1.23.43-3.25,3.31a54.37,54.37,0,0,0-4.41,7.29,5.27,5.27,0,0,0-.79,2.7,2.25,2.25,0,0,0,.24.94,2.55,2.55,0,0,0,1.16,1,5.35,5.35,0,0,0,2.09.55,4.22,4.22,0,0,0,1.71-.37,3.7,3.7,0,0,1-1.65-2.94A5.91,5.91,0,0,1,178,30.44a2.75,2.75,0,0,1,2-1,4,4,0,0,1,2.39.73c2,1.47,3.06,3.11,3.18,4.9a10.69,10.69,0,0,1-.85,4.42,4.75,4.75,0,0,1-3.56,2.39l-1,.12a8.07,8.07,0,0,1-4-1.11,16.64,16.64,0,0,1-5.27-4.1,11.08,11.08,0,0,1-1.56-2.3,6.7,6.7,0,0,1-.65-3.09,12.18,12.18,0,0,1,1.9-4.84q1.35-2.4,2.82-4.6a21.75,21.75,0,0,1,2.51-3.49,4.58,4.58,0,0,1,2.94-1.1,6.16,6.16,0,0,1,1.47.18q6.26,2.08,11,9.74v-16H167a2.66,2.66,0,0,1-1.77-.67c-1.48-1.11-2.29-2.17-2.46-3.19,0-.33.13-.49.37-.49h32c.94,0,2,.65,3.19,2a3.69,3.69,0,0,1,1,1.9c0,.33-.12.49-.37.49h-3.12V44.59C195.82,44.88,195.69,45,195.45,45Z"/><path class="cls-16" d="M234.72,11.2H198.88a3,3,0,0,1-1.78-.61,9.58,9.58,0,0,1-2-2.08,2.69,2.69,0,0,1-.43-1.11c0-.36.13-.55.37-.55h35.84a3.06,3.06,0,0,1,1.78.61,10.7,10.7,0,0,1,2,2.09,1.91,1.91,0,0,1,.37,1.1C235.09,11,235,11.2,234.72,11.2Zm-3.37,28.06a11.84,11.84,0,0,1-5.71,4.84,10.92,10.92,0,0,1-4.17.86,13.71,13.71,0,0,1-6.42-1.62,28.91,28.91,0,0,1-5.61-3.83,34.79,34.79,0,0,1-4.39-4.29A22.62,22.62,0,0,1,201.67,30a13.65,13.65,0,0,1-1.32-5.91v-.74a9.45,9.45,0,0,1,3.31-6.92,8.17,8.17,0,0,1,5.33-2,8,8,0,0,1,1.65.18,4.29,4.29,0,0,1,1.81,1,8.54,8.54,0,0,1,1.38,1.54,3.89,3.89,0,0,1,.37.64,1.76,1.76,0,0,1,.18.7c0,.25-.16.39-.49.43h-.24a6.15,6.15,0,0,0-3.31.25,7,7,0,0,0-2.94,1.9,7.61,7.61,0,0,0-1.87,3,10.47,10.47,0,0,0-.58,3.46v.8a13.9,13.9,0,0,0,.79,3.43l.8,1.47.67,1.1.37.49a3,3,0,0,1,.28.34,4.32,4.32,0,0,0,.36.43c.15.14.3.29.46.46l.62.55.85.76a9.89,9.89,0,0,0,1.11.83l.3.25.52.36a2,2,0,0,0,.46.25l.52.3a3.51,3.51,0,0,0,.43.22l.34.15,1.41.55c.61.13,1.22.23,1.84.31h.67a10.65,10.65,0,0,0,5.76-1.78,11,11,0,0,0,3.65-4.19,12,12,0,0,0,1.25-5.3,11.15,11.15,0,0,0-.37-2.88l-.12-.49-.18-.55-.3-.68-.73-1.47L225.92,22l-.85-1-.43-.43L224,19.9l-.72-.67a.5.5,0,0,0-.19-.19l-.06-.06a14.1,14.1,0,0,1,.49,3.68,12,12,0,0,1-.55,3.61,2,2,0,0,0-.24.68,6.87,6.87,0,0,1,1.88,4.59,4.94,4.94,0,0,1-.61,2.33,4.13,4.13,0,0,1-1.77,1.65,5.09,5.09,0,0,1-2.32.56,4.57,4.57,0,0,1-1.29-.19,5.36,5.36,0,0,1-2.2-1.35,6.16,6.16,0,0,1-.92-1,3.53,3.53,0,0,1-.62-1.16l-.12-.86a4.68,4.68,0,0,1,.34-1.77c.22-.58.48-1.15.76-1.72a2.11,2.11,0,0,0,.31-.55,30.41,30.41,0,0,0,2-4.23,11.26,11.26,0,0,0,.74-4v-.74a7.34,7.34,0,0,0-.31-2.14l-.37-1.23-.12-.24-.24-.61a.07.07,0,0,0-.07-.07l-.12-.39a1.55,1.55,0,0,1-.06-.4c0-.21.12-.35.37-.43h.24a1.66,1.66,0,0,1,.77.21,5.66,5.66,0,0,1,.7.46,2.62,2.62,0,0,0,.31.19,39.77,39.77,0,0,1,8.23,7.53,19.12,19.12,0,0,1,4.59,9.44,14.34,14.34,0,0,1,.13,2,13.52,13.52,0,0,1-.74,4.41A10.09,10.09,0,0,1,231.35,39.26Z"/></g></g></svg>