<svg xmlns="http://www.w3.org/2000/svg" width="232.463" height="37.42" viewBox="0 0 232.463 37.42">
  <g id="logo" transform="translate(-140 -56)">
    <g id="Group_107" data-name="Group 107" transform="translate(140 56)">
      <g id="logo-2" data-name="logo">
        <path id="Path_613" data-name="Path 613" d="M214.184,240.375s0,0,0,.007h-7.52c-.062,0-.127-.007-.189-.007H189.313a8.765,8.765,0,0,1-7.1-4.85,8.288,8.288,0,0,1-.845-3.408,8.569,8.569,0,0,1,8.554-8.816H210.2a4.849,4.849,0,0,1,4.85,4.85H190.023a3.776,3.776,0,0,0-3.809,3.518,3.707,3.707,0,0,0,3.183,3.856,3.425,3.425,0,0,0,.517.036h17.322A8.57,8.57,0,0,1,214.184,240.375Z" transform="translate(-155.556 -223.3)" fill="#3bb77e"/>
        <g id="Group_213" data-name="Group 213">
          <path id="Path_614" data-name="Path 614" d="M133.277,228.15H115.35a4.849,4.849,0,0,1-4.85-4.85h17.927a4.849,4.849,0,0,1,4.85,4.85Z" transform="translate(-110.5 -223.3)" fill="#606161"/>
        </g>
        <g id="Group_214" data-name="Group 214" transform="translate(6.813 12.268)">
          <path id="Path_615" data-name="Path 615" d="M145.622,261.84H134.06a4.849,4.849,0,0,1-4.85-4.85h11.562a4.853,4.853,0,0,1,4.85,4.85Z" transform="translate(-129.21 -256.99)" fill="#606161"/>
        </g>
        <path id="Path_616" data-name="Path 616" d="M195.18,277.593a7.493,7.493,0,0,1-.084.954,8.71,8.71,0,0,1-8.652,7.345H155a4.849,4.849,0,0,1-4.85-4.85h36.367a3.825,3.825,0,0,0,3.605-2.494,3.429,3.429,0,0,0,.2-1.023,3.675,3.675,0,0,0-.433-1.934H195A8.258,8.258,0,0,1,195.18,277.593Z" transform="translate(-135.712 -256.549)" fill="#3bb77e"/>
        <ellipse id="Ellipse_3" data-name="Ellipse 3" cx="3.015" cy="3.015" rx="3.015" ry="3.015" transform="translate(25.949 31.389)" fill="#606161"/>
        <ellipse id="Ellipse_4" data-name="Ellipse 4" cx="3.015" cy="3.015" rx="3.015" ry="3.015" transform="translate(42.809 31.389)" fill="#606161"/>
      </g>
    </g>
    <g id="logo_text" transform="translate(209.187 61.756)">
      <path id="Path_617" data-name="Path 617" d="M295.026,267.32H290.62V243.6h17.315v3.692H295.023V267.32Zm-.371-12.811h11.827v3.729H294.655Z" transform="translate(-290.62 -242.173)" fill="#3bb77e"/>
      <path id="Path_618" data-name="Path 618" d="M350.414,277.019a8.519,8.519,0,0,1-3.558-.7,5.508,5.508,0,0,1-2.356-1.93,4.9,4.9,0,0,1-.83-2.8,5.274,5.274,0,0,1,.728-2.746,4.929,4.929,0,0,1,2.389-1.934,11.376,11.376,0,0,1,4.406-.71h5.251v2.811H351.5a4.409,4.409,0,0,0-2.913.7,2.241,2.241,0,0,0-.747,1.711,2.155,2.155,0,0,0,.914,1.828,4.2,4.2,0,0,0,2.542.677,5.526,5.526,0,0,0,2.8-.71,4.044,4.044,0,0,0,1.781-2.1l.71,2.542a4.707,4.707,0,0,1-2.185,2.473A8.01,8.01,0,0,1,350.414,277.019Zm5.692-.237v-3.66l-.237-.779v-6.405a3.753,3.753,0,0,0-1.118-2.9,4.854,4.854,0,0,0-3.39-1.034,9.841,9.841,0,0,0-3,.473,7.375,7.375,0,0,0-2.491,1.322l-1.661-3.084a10.086,10.086,0,0,1,3.474-1.679,15.632,15.632,0,0,1,4.184-.557,8.968,8.968,0,0,1,6.085,1.879q2.152,1.879,2.152,5.812v10.608h-4Z" transform="translate(-324.352 -251.634)" fill="#3bb77e"/>
      <path id="Path_619" data-name="Path 619" d="M426.546,258.49a8.418,8.418,0,0,1,3.845.848,6.053,6.053,0,0,1,2.625,2.593,9.351,9.351,0,0,1,.95,4.49v10.371h-4.235v-9.828a5.291,5.291,0,0,0-1.049-3.59,3.819,3.819,0,0,0-3.015-1.187,4.866,4.866,0,0,0-2.458.612,4.14,4.14,0,0,0-1.66,1.8,6.705,6.705,0,0,0-.594,3.015v9.184h-4.235v-9.828a5.291,5.291,0,0,0-1.049-3.59,3.819,3.819,0,0,0-3.015-1.187,4.866,4.866,0,0,0-2.458.612,4.141,4.141,0,0,0-1.66,1.8,6.705,6.705,0,0,0-.594,3.015v9.184H403.71v-18.1h4.031v4.81l-.71-1.424a6.157,6.157,0,0,1,2.662-2.676,8.423,8.423,0,0,1,3.984-.914,7.8,7.8,0,0,1,4.421,1.253,6.051,6.051,0,0,1,2.491,3.794l-1.661-.575a6.973,6.973,0,0,1,2.913-3.252A8.925,8.925,0,0,1,426.546,258.49Z" transform="translate(-362.529 -251.64)" fill="#3bb77e"/>
      <rect id="Rectangle_55" data-name="Rectangle 55" width="4.235" height="18.098" transform="translate(76.86 7.05)" fill="#3bb77e"/>
      <path id="Path_620" data-name="Path 620" d="M537.716,267.055a13.79,13.79,0,0,1-5.033-.9,11.956,11.956,0,0,1-4.031-2.542,11.624,11.624,0,0,1-2.662-3.882,13,13,0,0,1,0-9.759,11.542,11.542,0,0,1,2.677-3.882,12.232,12.232,0,0,1,4.031-2.542,14.632,14.632,0,0,1,10.371.1,10.58,10.58,0,0,1,4.067,2.964l-2.848,2.676a8.344,8.344,0,0,0-6.336-2.778,9.152,9.152,0,0,0-3.4.612,7.833,7.833,0,0,0-4.439,4.373,9.292,9.292,0,0,0,0,6.708,7.833,7.833,0,0,0,4.439,4.373,9.152,9.152,0,0,0,3.4.612,8.554,8.554,0,0,0,3.456-.7,8.386,8.386,0,0,0,2.88-2.119l2.848,2.713a10.824,10.824,0,0,1-4.067,2.95A13.618,13.618,0,0,1,537.716,267.055Z" transform="translate(-439.677 -241.568)" fill="#606161"/>
      <path id="Path_621" data-name="Path 621" d="M598.984,277.019a8.52,8.52,0,0,1-3.558-.7,5.509,5.509,0,0,1-2.356-1.93,4.9,4.9,0,0,1-.83-2.8,5.274,5.274,0,0,1,.728-2.746,4.93,4.93,0,0,1,2.389-1.934,11.376,11.376,0,0,1,4.406-.71h5.251v2.811h-4.949a4.409,4.409,0,0,0-2.913.7,2.242,2.242,0,0,0-.746,1.711,2.155,2.155,0,0,0,.914,1.828,4.2,4.2,0,0,0,2.542.677,5.526,5.526,0,0,0,2.8-.71,4.044,4.044,0,0,0,1.781-2.1l.71,2.542a4.707,4.707,0,0,1-2.185,2.473A8.009,8.009,0,0,1,598.984,277.019Zm5.692-.237v-3.66l-.237-.779v-6.405a3.754,3.754,0,0,0-1.118-2.9,4.854,4.854,0,0,0-3.39-1.034,9.84,9.84,0,0,0-3,.473,7.375,7.375,0,0,0-2.491,1.322l-1.66-3.084a10.085,10.085,0,0,1,3.474-1.679,15.632,15.632,0,0,1,4.184-.557,8.968,8.968,0,0,1,6.085,1.879q2.152,1.879,2.152,5.812v10.608h-4Z" transform="translate(-482.407 -251.634)" fill="#606161"/>
      <path id="Path_622" data-name="Path 622" d="M652.26,276.788v-18.1h4.031v4.982l-.473-1.457a5.724,5.724,0,0,1,2.56-2.778,9.015,9.015,0,0,1,4.355-.947v4.031a3.087,3.087,0,0,0-.51-.084c-.157-.011-.317-.018-.473-.018a5.22,5.22,0,0,0-3.831,1.406,5.637,5.637,0,0,0-1.424,4.184v8.776H652.26Z" transform="translate(-520.571 -251.64)" fill="#606161"/>
      <path id="Path_623" data-name="Path 623" d="M695.471,265.065a9.431,9.431,0,0,1-4.694-1.169,8.466,8.466,0,0,1-3.27-3.237,10.622,10.622,0,0,1,0-9.759,8.37,8.37,0,0,1,3.27-3.219,9.536,9.536,0,0,1,4.694-1.151,8.222,8.222,0,0,1,4.068,1,7.085,7.085,0,0,1,2.848,3.033,11.359,11.359,0,0,1,1.049,5.218,11.712,11.712,0,0,1-1.016,5.2,6.969,6.969,0,0,1-2.811,3.066A8.309,8.309,0,0,1,695.471,265.065Zm.506-3.627a5.461,5.461,0,0,0,2.727-.677,5.039,5.039,0,0,0,1.93-1.966,6.643,6.643,0,0,0,0-6.048,5.064,5.064,0,0,0-1.93-1.948,5.83,5.83,0,0,0-5.455,0,5.063,5.063,0,0,0-1.93,1.948,6.643,6.643,0,0,0,0,6.048,5.039,5.039,0,0,0,1.93,1.966A5.471,5.471,0,0,0,695.977,261.438Zm5.491,3.39v-4.271l.168-4.81-.339-4.814V239.68H705.5v25.144h-4.035Z" transform="translate(-542.228 -239.68)" fill="#606161"/>
    </g>
  </g>
</svg>
