<svg xmlns="http://www.w3.org/2000/svg" xmlns:xlink="http://www.w3.org/1999/xlink" viewBox="0 0 551.39 117.13"><defs><style>.cls-1{fill:url(#linear-gradient);}.cls-2{fill:#204152;}.cls-3{fill:#0b99ae;}</style><linearGradient id="linear-gradient" x1="-36.99" y1="9.17" x2="82.02" y2="79.65" gradientUnits="userSpaceOnUse"><stop offset="0" stop-color="#0b99ae"/><stop offset="1" stop-color="#204152"/></linearGradient></defs><title>Asset 2</title><g id="Layer_2" data-name="Layer 2"><g id="Layer_1-2" data-name="Layer 1"><path class="cls-1" d="M108.12,54c-.07-.39-.14-.78-.22-1.17A51.83,51.83,0,0,0,93.27,25.88C81.08,13.72,65,8.28,54.49,8.28h-.07c-9.69,0-18.62,3.31-22.28,4.85-2.93-2.82-5.79-6.49-6.48-10.52A3.19,3.19,0,0,0,24.83.88,3,3,0,0,0,20.48,1a28,28,0,0,0-5,23.71C11.6,28.87,0,42.93,0,62.71a54.42,54.42,0,0,0,107.53,11.9c.13-.55.24-1.09.35-1.65a54.06,54.06,0,0,0,1-10.25A51.67,51.67,0,0,0,108.12,54ZM54.43,13.49h.06c9.46,0,24,5,35.11,16.08a47,47,0,0,1,13.22,24.37A29.48,29.48,0,0,1,69.63,76.87c-10.2-1.53-19.54-9.42-23.33-19.33a28.48,28.48,0,0,1,30.29,3.14,25.79,25.79,0,0,1,2.17,1.91,3.52,3.52,0,0,0,3.52.31,2.8,2.8,0,0,0,1.25-1.64v-.2a23.4,23.4,0,0,0-.4-4.38,24.13,24.13,0,0,0-18-19C63.78,32.16,59,24.52,47,21.41A33,33,0,0,1,36.75,16.9,53.56,53.56,0,0,1,54.43,13.49ZM5.2,62.71c0-20.23,13.42-33.84,15-35.32l1.12-1.09-.43-1.49A23.46,23.46,0,0,1,22.08,8.32c1.76,3.73,4.82,7.39,9.13,10.94a37.19,37.19,0,0,0,14.46,7.19c8.77,2.27,12.32,7,13.76,10.49h0V40.2a2.05,2.05,0,0,0,1.88,2,19,19,0,0,1,16,12.51c-.8-.52-1.63-1-2.47-1.44a33.67,33.67,0,0,0-39.61,53.53,30.08,30.08,0,0,0,2.3,2.1A49.31,49.31,0,0,1,5.2,62.71Zm33.65,40.44a28.48,28.48,0,0,1-5-33.4,34.73,34.73,0,0,0,15.36,36.47,34.29,34.29,0,0,0,12.4,4.86C53.8,111.68,45.16,109.46,38.85,103.15Zm35.34,2.56a29.49,29.49,0,0,1-34.25-38.6A34.63,34.63,0,0,0,91.67,94.17,29.24,29.24,0,0,1,74.19,105.71ZM102.5,73.24a29.48,29.48,0,0,1-57.39-6.73,34.22,34.22,0,0,0,29,15.9,34.78,34.78,0,0,0,29.47-16.49A47.62,47.62,0,0,1,102.5,73.24Z"/><path class="cls-2" d="M138.35,70.45a15.43,15.43,0,0,0,2.22,8.24,15.73,15.73,0,0,0,5.94,5.71,16.68,16.68,0,0,0,8.25,2.07,17.5,17.5,0,0,0,8.57-2.07,15.07,15.07,0,0,0,5.9-5.71,16,16,0,0,0,2.12-8.24v-35a9,9,0,0,1,9.05-9h0V70.73a24.52,24.52,0,0,1-3.39,13,23,23,0,0,1-9.24,8.58,29.34,29.34,0,0,1-25.93,0,22.88,22.88,0,0,1-9.24-8.58,24.52,24.52,0,0,1-3.4-13V26.42h.1a9,9,0,0,1,9,9Z"/><path class="cls-2" d="M209.53,38.39h0V55.74h10.65v6.88H209.53v23a9,9,0,0,1-9,9h0v-32H193.5V55.74h7.07V47.35A9,9,0,0,1,209.53,38.39Z"/><path class="cls-2" d="M230.65,94.58V30.47a8.86,8.86,0,0,1,8.86-8.86h0V85.72a8.86,8.86,0,0,1-8.86,8.86Zm6.13-12.44-.85-8.49,23.66-19L265,59.32ZM249,68.66l17.82,25.92H256.58L243.09,73.65Z"/><path class="cls-2" d="M271.94,74.69a20.33,20.33,0,0,1,2.79-10.56,20,20,0,0,1,7.73-7.45A22.92,22.92,0,0,1,293.72,54a22.17,22.17,0,0,1,11.13,2.73,19.63,19.63,0,0,1,7.49,7.45,22.07,22.07,0,0,1,0,21.12,20,20,0,0,1-7.49,7.49,22,22,0,0,1-11.22,2.78,23.31,23.31,0,0,1-11.17-2.59,19.68,19.68,0,0,1-7.69-7.26A20.82,20.82,0,0,1,271.94,74.69Zm8.87.09a13.87,13.87,0,0,0,1.69,6.84A13.22,13.22,0,0,0,287,86.47a11.66,11.66,0,0,0,6.41,1.79A11.88,11.88,0,0,0,300,86.47a12.83,12.83,0,0,0,4.47-4.85,15,15,0,0,0,0-13.67A13.31,13.31,0,0,0,300,63a11.74,11.74,0,0,0-6.51-1.83A11.58,11.58,0,0,0,287,63.09a13.45,13.45,0,0,0-4.52,5A14,14,0,0,0,280.81,74.78Z"/><path class="cls-2" d="M334.64,55.55l.85,11.31-.38-1.6a17.2,17.2,0,0,1,4.34-6,20.75,20.75,0,0,1,6-3.87A16.63,16.63,0,0,1,351,54l-.38,8.86a12.79,12.79,0,0,0-7.87,1.65,15.19,15.19,0,0,0-5.26,5.25,15,15,0,0,0-1.95,7.67v8.43a8.77,8.77,0,0,1-8.77,8.77h0V62.41a6.86,6.86,0,0,1,6.86-6.86Z"/><path class="cls-2" d="M373.2,95.34a22.72,22.72,0,0,1-8.06-1.47,15.6,15.6,0,0,1-6.46-4.38l3.68-5.09a19.77,19.77,0,0,0,5.09,3.53,12,12,0,0,0,5.09,1.18,12.12,12.12,0,0,0,3.49-.47,5.34,5.34,0,0,0,2.59-1.6,4.29,4.29,0,0,0,1-2.92,4.19,4.19,0,0,0-1.37-3.35,11,11,0,0,0-3.44-1.93c-1.38-.51-2.89-1-4.52-1.42A16.79,16.79,0,0,1,362.92,73a9.94,9.94,0,0,1-2.54-6.88,11.43,11.43,0,0,1,1.55-5.8,12,12,0,0,1,4.67-4.43,15.23,15.23,0,0,1,7.54-1.74,24.62,24.62,0,0,1,7.26,1,17.5,17.5,0,0,1,6,3.35L384,63.94a11,11,0,0,0-4-2.69,11.88,11.88,0,0,0-4.2-.89,9.21,9.21,0,0,0-3.15.52,5.68,5.68,0,0,0-2.36,1.5,3.59,3.59,0,0,0-.9,2.5A3.69,3.69,0,0,0,370.61,68,10.69,10.69,0,0,0,374.05,70c1.38.51,2.79,1,4.24,1.51a20.71,20.71,0,0,1,5.09,2.27A11.64,11.64,0,0,1,387,77.23a9.28,9.28,0,0,1,1.37,5.19,13.07,13.07,0,0,1-1.65,6.46,11.71,11.71,0,0,1-5,4.71A18.4,18.4,0,0,1,373.2,95.34Z"/><path class="cls-2" d="M400.54,94.58V30.28a8.67,8.67,0,0,1,8.67-8.67h0v43L409,63a16.13,16.13,0,0,1,6.08-6.41A18.08,18.08,0,0,1,424.87,54a12.78,12.78,0,0,1,9,3.25,11.27,11.27,0,0,1,3.63,8.44v20a8.86,8.86,0,0,1-8.86,8.86h0V68.75a8,8,0,0,0-1.84-5.14c-1.17-1.35-3-2-5.42-2a10.42,10.42,0,0,0-6.08,1.94A12.85,12.85,0,0,0,411,68.75a17.43,17.43,0,0,0-1.56,7.54v9.62a8.67,8.67,0,0,1-8.67,8.67Z"/><path class="cls-2" d="M449.28,74.69a20.41,20.41,0,0,1,2.78-10.56,20.1,20.1,0,0,1,7.74-7.45A22.92,22.92,0,0,1,471.06,54a22.17,22.17,0,0,1,11.13,2.73,19.63,19.63,0,0,1,7.49,7.45,22.07,22.07,0,0,1,0,21.12,20,20,0,0,1-7.49,7.49A22,22,0,0,1,471,95.52a23.31,23.31,0,0,1-11.17-2.59,19.68,19.68,0,0,1-7.69-7.26A20.82,20.82,0,0,1,449.28,74.69Zm8.86.09a13.88,13.88,0,0,0,1.7,6.84,13.14,13.14,0,0,0,4.53,4.85,11.66,11.66,0,0,0,6.41,1.79,11.82,11.82,0,0,0,6.5-1.79,12.77,12.77,0,0,0,4.48-4.85,15,15,0,0,0,0-13.67A13.25,13.25,0,0,0,477.28,63a12.25,12.25,0,0,0-13,.05,13.36,13.36,0,0,0-4.52,5A14,14,0,0,0,458.14,74.78Z"/><path class="cls-3" d="M512.92,21.63V85.74a8.87,8.87,0,0,1-8.85,8.85V30.48A8.83,8.83,0,0,1,512.92,21.63Z"/><path class="cls-3" d="M540.73,38.39h0V55.74h10.66v6.88H540.73v23a9,9,0,0,1-9,9h0v-32h-7.07V55.74h7.07V47.35A9,9,0,0,1,540.73,38.39Z"/></g></g></svg>